<svg width="22" height="18" viewBox="0 0 22 18" fill="none" xmlns="http://www.w3.org/2000/svg">
<path d="M11 10L10.4265 10.8192C10.7709 11.0603 11.2291 11.0603 11.5735 10.8192L11 10ZM3 2H19V0H3V2ZM19 2C19.5477 2 20 2.45228 20 3H22C22 1.34772 20.6523 0 19 0V2ZM20 3V15H22V3H20ZM20 15C20 15.5477 19.5477 16 19 16V18C20.6523 18 22 16.6523 22 15H20ZM19 16H3V18H19V16ZM3 16C2.45228 16 2 15.5477 2 15H0C0 16.6523 1.34772 18 3 18V16ZM2 15V3H0V15H2ZM2 3C2 2.45228 2.45228 2 3 2V0C1.34772 0 0 1.34772 0 3H2ZM20.4265 2.18077L10.4265 9.18077L11.5735 10.8192L21.5735 3.81923L20.4265 2.18077ZM11.5735 9.18077L1.57346 2.18077L0.426538 3.81923L10.4265 10.8192L11.5735 9.18077Z" fill="#FF5B00"/>
</svg>
