<svg width="22" height="22" viewBox="0 0 22 22" fill="none" xmlns="http://www.w3.org/2000/svg">
<path d="M21.0001 15.9201L20.0004 15.8953C20.0002 15.9036 20.0001 15.9118 20.0001 15.9201H21.0001ZM21.0001 18.9201H20L20.0001 18.9242L21.0001 18.9201ZM18.8201 20.9201L18.712 21.9142C18.718 21.9149 18.724 21.9155 18.73 21.916L18.8201 20.9201ZM10.1901 17.8501L10.7342 17.011L10.7264 17.0061L10.1901 17.8501ZM4.19006 11.8501L5.0341 11.3138L5.02934 11.3064L4.19006 11.8501ZM1.12006 3.1801L0.124113 3.2701C0.124584 3.2753 0.125095 3.2805 0.125646 3.2857L1.12006 3.1801ZM3.11006 1.0001V9.64999e-05L3.10911 9.7394e-05L3.11006 1.0001ZM6.11006 1.0001V2.00015L6.1199 2.00005L6.11006 1.0001ZM8.11005 2.7201L9.10151 2.58933L9.10021 2.58015L8.11005 2.7201ZM8.81006 5.5301L7.87316 5.8797L7.874 5.88196L8.81006 5.5301ZM8.36005 7.6401L9.06717 8.34722L9.07111 8.34324L8.36005 7.6401ZM7.09006 8.9101L6.38295 8.20299C6.06464 8.5213 5.99825 9.01307 6.22076 9.40439L7.09006 8.9101ZM13.0901 14.9101L12.5958 15.7794C12.9871 16.0019 13.4788 15.9355 13.7972 15.6172L13.0901 14.9101ZM14.3601 13.6401L13.6569 12.929L13.6529 12.933L14.3601 13.6401ZM16.4701 13.1901L16.1182 14.1262L16.1205 14.127L16.4701 13.1901ZM19.2801 13.8901L19.4198 12.8999L19.4108 12.8987L19.2801 13.8901ZM20.0001 15.9201V18.9201H22.0001V15.9201H20.0001ZM20.0001 18.9242C20.0006 19.0634 19.9721 19.2012 19.9163 19.3288L21.7488 20.1301C21.9162 19.7473 22.0017 19.3338 22 18.916L20.0001 18.9242ZM19.9163 19.3288C19.8605 19.4564 19.7787 19.5709 19.6761 19.6651L21.0282 21.1388C21.336 20.8564 21.5815 20.5128 21.7488 20.1301L19.9163 19.3288ZM19.6761 19.6651C19.5735 19.7592 19.4523 19.8309 19.3204 19.8755L19.9612 21.7701C20.3569 21.6363 20.7203 21.4212 21.0282 21.1388L19.6761 19.6651ZM19.3204 19.8755C19.1885 19.9201 19.0488 19.9367 18.9101 19.9242L18.73 21.916C19.1461 21.9536 19.5654 21.9039 19.9612 21.7701L19.3204 19.8755ZM18.9281 19.9259C16.0064 19.6085 13.1999 18.6101 10.7342 17.0111L9.64595 18.6891C12.3742 20.4584 15.4794 21.563 18.712 21.9142L18.9281 19.9259ZM10.7264 17.0061C8.43411 15.5495 6.49067 13.606 5.03407 11.3138L3.34604 12.3864C4.96011 14.9265 7.11366 17.08 9.65373 18.6941L10.7264 17.0061ZM5.02934 11.3064C3.42471 8.82943 2.42612 6.0093 2.11446 3.0745L0.125646 3.2857C0.470476 6.53288 1.57536 9.65318 3.35078 12.3938L5.02934 11.3064ZM2.116 3.0901C2.1035 2.95183 2.11993 2.81248 2.16425 2.68091L0.268864 2.04253C0.135926 2.43724 0.0866292 2.8553 0.124113 3.2701L2.116 3.0901ZM2.16425 2.68091C2.20856 2.54934 2.27978 2.42844 2.37338 2.32591L0.896262 0.977529C0.61547 1.28513 0.401802 1.64783 0.268864 2.04253L2.16425 2.68091ZM2.37338 2.32591C2.46698 2.22337 2.5809 2.14145 2.70789 2.08536L1.8998 0.25588C1.51882 0.424162 1.17705 0.669927 0.896262 0.977529L2.37338 2.32591ZM2.70789 2.08536C2.83489 2.02926 2.97217 2.00023 3.111 2.0001L3.10911 9.7394e-05C2.69262 0.000489593 2.28078 0.0875992 1.8998 0.25588L2.70789 2.08536ZM3.11006 2.0001H6.11006V9.69768e-05H3.11006V2.0001ZM6.1199 2.00005C6.36255 1.99766 6.59779 2.08359 6.78178 2.24181L8.08586 0.725444C7.5339 0.250763 6.82817 -0.00701928 6.10021 0.000145376L6.1199 2.00005ZM6.78178 2.24181C6.96576 2.40004 7.08594 2.61977 7.1199 2.86005L9.10021 2.58015C8.99833 1.85932 8.63781 1.20013 8.08586 0.725444L6.78178 2.24181ZM7.11864 2.85085C7.25513 3.88569 7.50824 4.90177 7.87316 5.8797L9.74695 5.18049C9.43477 4.34388 9.21823 3.47463 9.10147 2.58934L7.11864 2.85085ZM7.874 5.88196C7.94128 6.06092 7.95583 6.25541 7.91596 6.4424L9.87197 6.85956C9.9916 6.29861 9.94792 5.71512 9.74611 5.17824L7.874 5.88196ZM7.91596 6.4424C7.87608 6.62938 7.78343 6.80101 7.649 6.93696L9.07111 8.34324C9.4744 7.9354 9.75233 7.42051 9.87197 6.85956L7.91596 6.4424ZM7.65295 6.93299L6.38295 8.20299L7.79716 9.6172L9.06716 8.3472L7.65295 6.93299ZM6.22076 9.40439C7.73329 12.0644 9.93574 14.2669 12.5958 15.7794L13.5843 14.0408C11.2373 12.7062 9.29393 10.7629 7.95935 8.4158L6.22076 9.40439ZM13.7972 15.6172L15.0672 14.3472L13.6529 12.933L12.3829 14.203L13.7972 15.6172ZM15.0632 14.3511C15.1991 14.2167 15.3708 14.1241 15.5578 14.0842L15.1406 12.1282C14.5796 12.2478 14.0647 12.5258 13.6569 12.929L15.0632 14.3511ZM15.5578 14.0842C15.7447 14.0443 15.9392 14.0589 16.1182 14.1261L16.8219 12.254C16.285 12.0522 15.7015 12.0086 15.1406 12.1282L15.5578 14.0842ZM16.1205 14.127C17.0984 14.4919 18.1145 14.745 19.1493 14.8815L19.4108 12.8987C18.5255 12.7819 17.6563 12.5654 16.8197 12.2532L16.1205 14.127ZM19.1404 14.8803C19.3832 14.9146 19.6051 15.0369 19.7636 15.224L21.2895 13.9311C20.8138 13.3697 20.1484 13.0027 19.4197 12.8999L19.1404 14.8803ZM19.7636 15.224C19.9222 15.4112 20.0064 15.6501 20.0004 15.8953L21.9997 15.9449C22.018 15.2093 21.7652 14.4926 21.2895 13.9311L19.7636 15.224Z" fill="#FF5B00"/>
</svg>
