<svg width="22" height="19" viewBox="0 0 22 19" fill="none" xmlns="http://www.w3.org/2000/svg">
<path d="M20.6931 6.41326L21.638 6.74079H21.638L20.6931 6.41326ZM16.5201 13.3455L17.2763 13.9999L16.5201 13.3455ZM9.71757 17.9952L9.82003 17.0004C9.78599 16.9969 9.75179 16.9952 9.71757 16.9952V17.9952ZM17.5777 1.00274L17.5381 0.00352746L17.5777 1.00274ZM13.4333 3.28531L12.6319 2.68718V2.68718L13.4333 3.28531ZM12.5016 5.59605L11.5176 5.41809C11.4588 5.74332 11.5644 6.0766 11.7999 6.30852C12.0354 6.54044 12.3702 6.64103 12.6945 6.57727L12.5016 5.59605ZM10.0606 6.24419L9.06693 6.35691L10.0606 6.24419ZM7.17375 1.25636L7.10488 0.258738L7.17375 1.25636ZM1.82888 6.77961L1.03299 7.38505C1.3494 7.80098 1.93272 7.90314 2.37165 7.61949L1.82888 6.77961ZM1 5.70877L0.25729 5.03916C-0.0452485 5.37473 -0.0852022 5.87147 0.159814 6.25107L1 5.70877ZM3.91538 6.01875L4.71714 5.4211L3.91538 6.01875ZM6.25912 12.3028L5.29783 12.5784L6.25912 12.3028ZM19.7483 6.08573C19.0264 8.16806 17.5101 10.6733 15.764 12.6911L17.2763 13.9999C19.1518 11.8326 20.8164 9.11087 21.638 6.74079L19.7483 6.08573ZM15.764 12.6911C14.5922 14.0452 13.2392 15.1756 12.0591 15.9472C11.4687 16.3332 10.9394 16.6178 10.5137 16.7957C10.3009 16.8846 10.1281 16.9409 9.99654 16.9719C9.85654 17.0048 9.80571 16.999 9.82003 17.0004L9.6151 18.9899C10.1541 19.0454 10.7596 18.8605 11.2847 18.6411C11.8518 18.4041 12.4905 18.0547 13.1536 17.6212C14.4806 16.7536 15.9762 15.5022 17.2763 13.9999L15.764 12.6911ZM17.6172 2.00196C18.4752 1.96799 19.1741 2.38004 19.5922 3.07983C20.0172 3.79109 20.1748 4.85542 19.7483 6.08573L21.638 6.74079C22.2322 5.02668 22.0754 3.33653 21.3091 2.05402C20.536 0.760039 19.1668 -0.0609561 17.5381 0.00352746L17.6172 2.00196ZM14.2347 3.88343C14.762 3.17682 15.2529 2.73651 15.7604 2.45878C16.2634 2.18353 16.8477 2.03243 17.6172 2.00196L17.5381 0.00352746C16.5356 0.0432214 15.6335 0.24834 14.8003 0.704297C13.9716 1.15778 13.2763 1.82367 12.6319 2.68718L14.2347 3.88343ZM11.8041 12.9083C12.1152 12.9083 12.3762 12.7949 12.5384 12.7094C12.7182 12.6147 12.8897 12.4929 13.0452 12.367C13.3579 12.1139 13.6869 11.7781 14.0022 11.4075C14.6316 10.6676 15.29 9.68937 15.7167 8.7228C15.9299 8.23982 16.1021 7.72223 16.1681 7.21446C16.2332 6.71394 16.2063 6.13009 15.91 5.60412C15.5944 5.04385 15.0615 4.70386 14.4287 4.56033C13.8259 4.42363 13.1129 4.45671 12.3087 4.61484L12.6945 6.57727C13.3594 6.44655 13.7635 6.46027 13.9863 6.5108C14.0909 6.53451 14.1385 6.5625 14.154 6.57315C14.1662 6.58155 14.1666 6.58427 14.1675 6.58573C14.174 6.59737 14.2188 6.6949 14.1848 6.95667C14.1517 7.21117 14.0541 7.53678 13.8871 7.91504C13.5533 8.67096 13.0097 9.48747 12.4788 10.1116C12.2139 10.423 11.9733 10.6616 11.7869 10.8124C11.693 10.8884 11.6327 10.926 11.606 10.94C11.5617 10.9634 11.6414 10.9083 11.8041 10.9083V12.9083ZM13.4857 5.77402C13.6204 5.02904 13.8573 4.38905 14.2347 3.88343L12.6319 2.68718C12.0113 3.51862 11.6871 4.48104 11.5176 5.41809L13.4857 5.77402ZM9.06693 6.35691C9.16646 7.23434 9.35102 8.70129 9.64857 9.96127C9.79542 10.5831 9.98351 11.2159 10.2311 11.7141C10.3541 11.9615 10.5183 12.2309 10.7428 12.4509C10.973 12.6765 11.3308 12.9083 11.8041 12.9083V10.9083C12.0208 10.9083 12.1378 11.0177 12.1425 11.0223C12.1456 11.0253 12.1334 11.0138 12.1093 10.9779C12.0857 10.9427 12.0561 10.8924 12.0221 10.8239C11.8775 10.533 11.731 10.0774 11.595 9.50161C11.3269 8.36631 11.1528 7.00119 11.0542 6.13147L9.06693 6.35691ZM7.24263 2.25399C7.49368 2.23666 7.8995 2.42393 8.34073 3.42379C8.74031 4.32926 8.96935 5.49675 9.06693 6.35691L11.0542 6.13147C10.9458 5.17614 10.6857 3.78383 10.1705 2.61633C9.69692 1.5432 8.76231 0.144308 7.10488 0.258738L7.24263 2.25399ZM2.62477 6.17417C2.47702 5.97994 2.31548 5.80337 2.23177 5.70433C2.13404 5.58871 2.01672 5.43999 1.84019 5.16648L0.159814 6.25107C0.383426 6.59752 0.551931 6.81513 0.7043 6.9954C0.870681 7.19224 0.923504 7.24112 1.03299 7.38505L2.62477 6.17417ZM1.74271 6.37839C2.6457 5.37683 3.64743 4.34756 4.64701 3.55787C5.67652 2.74453 6.562 2.30098 7.24263 2.25399L7.10488 0.258738C5.79683 0.349047 4.51006 1.11723 3.40718 1.98853C2.27436 2.88349 1.18356 4.01177 0.25729 5.03916L1.74271 6.37839ZM4.71714 5.4211C4.34825 4.92623 3.81191 4.78192 3.34619 4.82933C2.94901 4.86976 2.59631 5.04402 2.35426 5.18445C2.09527 5.33471 1.85302 5.51285 1.66866 5.65259C1.45126 5.81739 1.35427 5.89568 1.28612 5.93972L2.37165 7.61949C2.52367 7.52125 2.7372 7.35228 2.8768 7.24646C3.04945 7.11559 3.21072 6.99978 3.35792 6.91438C3.52205 6.81915 3.57821 6.81604 3.54874 6.81904C3.5207 6.8219 3.44239 6.82454 3.34218 6.78552C3.23452 6.74359 3.15746 6.6752 3.11363 6.61641L4.71714 5.4211ZM9.71757 16.9952C9.89589 16.9952 9.98412 17.0578 9.94098 17.034C9.91839 17.0216 9.85827 16.9831 9.76344 16.9001C9.57545 16.7356 9.31641 16.4536 9.02132 16.033C8.4345 15.1966 7.75055 13.8768 7.22041 12.0273L5.29783 12.5784C5.8824 14.6177 6.65613 16.1441 7.38409 17.1817C7.74639 17.698 8.10901 18.1099 8.44622 18.4051C8.614 18.5519 8.79236 18.6847 8.97654 18.7861C9.14017 18.8762 9.40348 18.9952 9.71757 18.9952V16.9952ZM7.22041 12.0273C6.84377 10.7133 6.44276 9.37496 6.03575 8.22946C5.64103 7.11856 5.20117 6.07043 4.71714 5.4211L3.11363 6.61641C3.39736 6.99703 3.75377 7.7806 4.15117 8.89907C4.53629 9.98295 4.92326 11.2716 5.29783 12.5784L7.22041 12.0273Z" fill="#FF5B00"/>
</svg>
